<mxfile host="65bd71144e">
    <diagram id="e3odrKDZFT-CjE0uIRXQ" name="Page-2">
        <mxGraphModel dx="4307" dy="2989" grid="1" gridSize="10" guides="1" tooltips="1" connect="1" arrows="1" fold="1" page="1" pageScale="1" pageWidth="827" pageHeight="1169" math="0" shadow="0">
            <root>
                <mxCell id="0"/>
                <mxCell id="1" parent="0"/>
                <mxCell id="9t9HPKr-2966V64MHlrp-1" value="" style="rounded=0;whiteSpace=wrap;html=1;fillColor=#d5e8d4;strokeColor=#82b366;" vertex="1" parent="1">
                    <mxGeometry y="80" width="1080" height="960" as="geometry"/>
                </mxCell>
                <mxCell id="9t9HPKr-2966V64MHlrp-2" value="&lt;font style=&quot;font-size: 14px;&quot;&gt;&lt;b&gt;DATA&lt;/b&gt;&lt;/font&gt;" style="text;html=1;align=center;verticalAlign=middle;whiteSpace=wrap;rounded=0;" vertex="1" parent="1">
                    <mxGeometry x="10" y="90" width="60" height="30" as="geometry"/>
                </mxCell>
                <mxCell id="9t9HPKr-2966V64MHlrp-3" value="" style="rounded=0;whiteSpace=wrap;html=1;fillColor=#fad7ac;strokeColor=#b46504;" vertex="1" parent="1">
                    <mxGeometry x="1120" y="80" width="680" height="960" as="geometry"/>
                </mxCell>
                <mxCell id="9t9HPKr-2966V64MHlrp-4" value="&lt;font style=&quot;font-size: 14px;&quot;&gt;&lt;b&gt;TOOLS&lt;/b&gt;&lt;/font&gt;" style="text;html=1;align=center;verticalAlign=middle;whiteSpace=wrap;rounded=0;" vertex="1" parent="1">
                    <mxGeometry x="1130" y="90" width="60" height="30" as="geometry"/>
                </mxCell>
                <mxCell id="9t9HPKr-2966V64MHlrp-5" value="" style="rounded=0;whiteSpace=wrap;html=1;fillColor=#dae8fc;strokeColor=#6c8ebf;" vertex="1" parent="1">
                    <mxGeometry x="-800" y="80" width="760" height="960" as="geometry"/>
                </mxCell>
                <mxCell id="9t9HPKr-2966V64MHlrp-6" value="&lt;font style=&quot;font-size: 14px;&quot;&gt;&lt;b&gt;GenAI&lt;/b&gt;&lt;/font&gt;" style="text;html=1;align=center;verticalAlign=middle;whiteSpace=wrap;rounded=0;" vertex="1" parent="1">
                    <mxGeometry x="-790" y="90" width="60" height="30" as="geometry"/>
                </mxCell>
                <mxCell id="9t9HPKr-2966V64MHlrp-11" value="" style="rounded=0;whiteSpace=wrap;html=1;fillColor=#fad9d5;strokeColor=#ae4132;" vertex="1" parent="1">
                    <mxGeometry x="120" y="-280" width="440" height="280" as="geometry"/>
                </mxCell>
                <mxCell id="9t9HPKr-2966V64MHlrp-12" value="&lt;b style=&quot;color: rgb(63, 63, 63); font-size: 14px;&quot;&gt;BUSINESS AI&lt;/b&gt;" style="text;html=1;align=center;verticalAlign=middle;whiteSpace=wrap;rounded=0;" vertex="1" parent="1">
                    <mxGeometry x="130" y="-270" width="120" height="30" as="geometry"/>
                </mxCell>
                <mxCell id="RwXbijk6IAnoue-IbN4g-1" value="BusinessAiApi" style="rounded=1;whiteSpace=wrap;html=1;" vertex="1" parent="1">
                    <mxGeometry x="230" y="-170" width="200" height="80" as="geometry"/>
                </mxCell>
                <mxCell id="JtY07gITc6DhVMVChe0E-1" value="Business corpus: (by business domain)&lt;div&gt;&lt;font color=&quot;#000000&quot;&gt;&lt;br&gt;&lt;/font&gt;&lt;/div&gt;&lt;div&gt;&lt;font color=&quot;#000000&quot;&gt;Base Domain :&lt;br&gt;&lt;/font&gt;&lt;div&gt;- Glossary&lt;/div&gt;&lt;div&gt;- Synonym Dictionnary&lt;/div&gt;&lt;div&gt;- Paraphrase Dictionnary&lt;/div&gt;&lt;div&gt;&lt;br&gt;&lt;/div&gt;&lt;/div&gt;&lt;div&gt;Specific Domain :&lt;/div&gt;&lt;div&gt;&lt;span style=&quot;background-color: transparent;&quot;&gt;- Faq&lt;/span&gt;&lt;/div&gt;&lt;div&gt;- Tiquets&lt;br&gt;- Conversation&lt;br&gt;- WrittenDoc (md, pdf, word, txt, etc ...)&lt;br&gt;- VisualDoc (png, drawio, etc ...)&lt;/div&gt;&lt;div&gt;- ItDoc: (OpenaApiSpec, etc...)&lt;/div&gt;" style="rounded=0;whiteSpace=wrap;html=1;fillColor=#fff2cc;strokeColor=#d6b656;align=left;verticalAlign=top;" vertex="1" parent="1">
                    <mxGeometry x="20" y="130" width="230" height="240" as="geometry"/>
                </mxCell>
                <mxCell id="K65jQkLNsSWvZxR_dDmF-13" style="edgeStyle=none;html=1;exitX=0.25;exitY=1;exitDx=0;exitDy=0;entryX=0.75;entryY=0;entryDx=0;entryDy=0;" edge="1" parent="1" source="4vlV2e6JqkRklds92Y-C-1" target="K65jQkLNsSWvZxR_dDmF-11">
                    <mxGeometry relative="1" as="geometry"/>
                </mxCell>
                <mxCell id="K65jQkLNsSWvZxR_dDmF-14" style="edgeStyle=none;html=1;exitX=0.5;exitY=1;exitDx=0;exitDy=0;entryX=0.5;entryY=0;entryDx=0;entryDy=0;" edge="1" parent="1" source="4vlV2e6JqkRklds92Y-C-1" target="4vlV2e6JqkRklds92Y-C-4">
                    <mxGeometry relative="1" as="geometry"/>
                </mxCell>
                <mxCell id="K65jQkLNsSWvZxR_dDmF-16" style="edgeStyle=none;html=1;exitX=0.75;exitY=1;exitDx=0;exitDy=0;entryX=0.5;entryY=0;entryDx=0;entryDy=0;" edge="1" parent="1" source="4vlV2e6JqkRklds92Y-C-1" target="4vlV2e6JqkRklds92Y-C-3">
                    <mxGeometry relative="1" as="geometry"/>
                </mxCell>
                <mxCell id="4vlV2e6JqkRklds92Y-C-1" value="CorpusApi" style="rounded=1;whiteSpace=wrap;html=1;" vertex="1" parent="1">
                    <mxGeometry x="320" y="130" width="200" height="80" as="geometry"/>
                </mxCell>
                <mxCell id="4vlV2e6JqkRklds92Y-C-2" value="&lt;b&gt;&lt;font style=&quot;font-size: 14px;&quot;&gt;POST /business/glossary/&amp;nbsp;&lt;/font&gt;&lt;/b&gt;&lt;br&gt;take glossary in entries&lt;br&gt;save as is in raw glassary table (for backup and use for regeneration)&lt;br&gt;convert in necessary languages&lt;div&gt;&lt;font color=&quot;#000000&quot;&gt;save in the glossary table&lt;br&gt;&lt;/font&gt;&lt;br&gt;&lt;div&gt;&lt;font style=&quot;font-size: 14px;&quot;&gt;&lt;b&gt;POST /business/synonym/&lt;/b&gt;&lt;/font&gt;&lt;/div&gt;&lt;div&gt;same behavior as post /business/glossary but with the&amp;nbsp;&lt;span style=&quot;color: rgb(63, 63, 63); background-color: transparent;&quot;&gt;synonym&lt;br&gt;&lt;br&gt;&lt;/span&gt;&lt;/div&gt;&lt;div&gt;&lt;b&gt;&lt;font style=&quot;font-size: 14px;&quot;&gt;POST /business/paraphrase/&lt;/font&gt;&lt;/b&gt;&lt;br&gt;&lt;span style=&quot;color: rgb(63, 63, 63);&quot;&gt;same behavior as post /business/glossary but with the&amp;nbsp;&lt;/span&gt;&lt;span style=&quot;color: rgb(63, 63, 63); background-color: transparent;&quot;&gt;paraphrase&lt;br&gt;&lt;br&gt;&lt;b&gt;&lt;font style=&quot;font-size: 14px;&quot;&gt;GET /business/glossary/&amp;nbsp;&lt;/font&gt;&lt;/b&gt;&lt;/span&gt;&lt;/div&gt;&lt;div&gt;&lt;span style=&quot;color: rgb(63, 63, 63); background-color: transparent;&quot;&gt;{&lt;br&gt;&amp;nbsp; &amp;nbsp;key&lt;br&gt;&amp;nbsp; &amp;nbsp;description&lt;br&gt;}&lt;br&gt;&lt;br&gt;&lt;b style=&quot;color: rgb(63, 63, 63); font-size: 14px;&quot;&gt;GET /business/synonym/&lt;/b&gt;&lt;br&gt;Get&lt;br&gt;{&lt;br&gt;&amp;nbsp; &amp;nbsp;key&lt;/span&gt;&lt;/div&gt;&lt;/div&gt;&lt;div&gt;&lt;span style=&quot;color: rgb(63, 63, 63); background-color: transparent;&quot;&gt;&amp;nbsp; &amp;nbsp;synonyms[]&lt;/span&gt;&lt;/div&gt;&lt;div&gt;&lt;span style=&quot;color: rgb(63, 63, 63); background-color: transparent;&quot;&gt;}&lt;/span&gt;&lt;/div&gt;&lt;div&gt;&lt;span style=&quot;color: rgb(63, 63, 63); background-color: transparent;&quot;&gt;&lt;br&gt;&lt;/span&gt;&lt;/div&gt;&lt;div&gt;&lt;span style=&quot;color: rgb(63, 63, 63); background-color: transparent;&quot;&gt;&lt;b style=&quot;color: rgb(63, 63, 63);&quot;&gt;&lt;font style=&quot;font-size: 14px;&quot;&gt;GET /business/paraphrase/&lt;/font&gt;&lt;/b&gt;&lt;/span&gt;&lt;/div&gt;&lt;div&gt;&lt;span style=&quot;color: rgb(63, 63, 63); background-color: transparent;&quot;&gt;&lt;div&gt;&lt;span style=&quot;background-color: transparent; color: rgb(63, 63, 63);&quot;&gt;Get&lt;br&gt;{&lt;br&gt;&amp;nbsp; &amp;nbsp;key&lt;/span&gt;&lt;/div&gt;&lt;div&gt;&lt;span style=&quot;background-color: transparent; color: rgb(63, 63, 63);&quot;&gt;&amp;nbsp; &amp;nbsp;paraphrases[]&lt;/span&gt;&lt;/div&gt;&lt;div&gt;&lt;span style=&quot;background-color: transparent; color: rgb(63, 63, 63);&quot;&gt;}&lt;/span&gt;&lt;/div&gt;&lt;/span&gt;&lt;/div&gt;&lt;div&gt;&lt;span style=&quot;color: rgb(63, 63, 63); background-color: transparent;&quot;&gt;&lt;br&gt;&lt;/span&gt;&lt;/div&gt;" style="rounded=0;whiteSpace=wrap;html=1;fillColor=#fff2cc;strokeColor=#d6b656;verticalAlign=top;align=left;" vertex="1" parent="1">
                    <mxGeometry x="640" y="450" width="430" height="480" as="geometry"/>
                </mxCell>
                <mxCell id="4vlV2e6JqkRklds92Y-C-3" value="BaseCorpus" style="rounded=1;whiteSpace=wrap;html=1;" vertex="1" parent="1">
                    <mxGeometry x="640" y="330" width="200" height="80" as="geometry"/>
                </mxCell>
                <mxCell id="4vlV2e6JqkRklds92Y-C-4" value="DomainCorpus" style="rounded=1;whiteSpace=wrap;html=1;" vertex="1" parent="1">
                    <mxGeometry x="320" y="330" width="200" height="80" as="geometry"/>
                </mxCell>
                <mxCell id="_hDKigVEraITJQWhlf0U-1" value="EmbedingsCreator" style="rounded=1;whiteSpace=wrap;html=1;" vertex="1" parent="1">
                    <mxGeometry x="1150" y="320" width="230" height="80" as="geometry"/>
                </mxCell>
                <mxCell id="K65jQkLNsSWvZxR_dDmF-18" style="edgeStyle=none;html=1;exitX=0.25;exitY=1;exitDx=0;exitDy=0;entryX=0.5;entryY=0;entryDx=0;entryDy=0;" edge="1" parent="1" source="_hDKigVEraITJQWhlf0U-2" target="_hDKigVEraITJQWhlf0U-1">
                    <mxGeometry relative="1" as="geometry"/>
                </mxCell>
                <mxCell id="K65jQkLNsSWvZxR_dDmF-19" style="edgeStyle=none;html=1;exitX=0.75;exitY=1;exitDx=0;exitDy=0;entryX=0.5;entryY=0;entryDx=0;entryDy=0;" edge="1" parent="1" source="_hDKigVEraITJQWhlf0U-2" target="_hDKigVEraITJQWhlf0U-3">
                    <mxGeometry relative="1" as="geometry"/>
                </mxCell>
                <mxCell id="_hDKigVEraITJQWhlf0U-2" value="DataToolApi" style="rounded=1;whiteSpace=wrap;html=1;" vertex="1" parent="1">
                    <mxGeometry x="1330" y="120" width="200" height="80" as="geometry"/>
                </mxCell>
                <mxCell id="_hDKigVEraITJQWhlf0U-3" value="DataConveter" style="rounded=1;whiteSpace=wrap;html=1;" vertex="1" parent="1">
                    <mxGeometry x="1540" y="320" width="230" height="80" as="geometry"/>
                </mxCell>
                <mxCell id="_hDKigVEraITJQWhlf0U-4" value="convert raw data to embedable data&lt;br&gt;&lt;br&gt;convert/markdown-to-datachunk&lt;br&gt;convert/word-to-datachunk&lt;br&gt;&lt;div&gt;convert/picture-to-description&lt;br&gt;convert/discussion-to-faq&lt;br&gt;&lt;br&gt;&lt;br&gt;convert raw data to training data&lt;br&gt;convert/&lt;span style=&quot;color: rgb(0, 0, 0); background-color: transparent;&quot;&gt;datachunk-to-discussion&lt;/span&gt;&lt;/div&gt;" style="rounded=0;whiteSpace=wrap;html=1;fillColor=#fff2cc;strokeColor=#d6b656;verticalAlign=top;align=left;" vertex="1" parent="1">
                    <mxGeometry x="1550" y="440" width="230" height="300" as="geometry"/>
                </mxCell>
                <mxCell id="_hDKigVEraITJQWhlf0U-6" value="datachunk-to-embedings&lt;div&gt;faq-to-embedings&lt;br&gt;&lt;br&gt;&lt;div&gt;{&lt;/div&gt;&lt;div&gt;&amp;nbsp; &quot;text&quot;: &quot;Assurez-vous que votre ordinateur répond à la configuration minimale avant d’installer le logiciel.&quot;,&lt;/div&gt;&lt;div&gt;&amp;nbsp; &quot;embedding&quot;: [0.123, 0.456, 0.789, ...],&lt;/div&gt;&lt;div&gt;&amp;nbsp; &quot;metadata&quot;: {&lt;/div&gt;&lt;div&gt;&amp;nbsp; &amp;nbsp; &quot;document_id&quot;: &quot;doc-001&quot;,&lt;/div&gt;&lt;div&gt;&amp;nbsp; &amp;nbsp; &quot;chunk_id&quot;: &quot;doc-001-chunk-003&quot;,&lt;/div&gt;&lt;div&gt;&amp;nbsp; &amp;nbsp; &quot;source&quot;: &quot;guide-installation.pdf&quot;,&lt;/div&gt;&lt;div&gt;&amp;nbsp; &amp;nbsp; &quot;page&quot;: 2,&lt;/div&gt;&lt;div&gt;&amp;nbsp; &amp;nbsp; &quot;title&quot;: &quot;Guide d’installation&quot;,&lt;/div&gt;&lt;div&gt;&amp;nbsp; &amp;nbsp; &quot;section&quot;: &quot;Prérequis système&quot;,&lt;/div&gt;&lt;div&gt;&amp;nbsp; &amp;nbsp; &quot;lang&quot;: &quot;fr&quot;,&lt;/div&gt;&lt;div&gt;&amp;nbsp; &amp;nbsp; &quot;author&quot;: &quot;Support Technique&quot;,&lt;/div&gt;&lt;div&gt;&amp;nbsp; &amp;nbsp; &quot;tags&quot;: [&quot;installation&quot;, &quot;prérequis&quot;, &quot;support&quot;],&lt;/div&gt;&lt;div&gt;&amp;nbsp; &amp;nbsp; &quot;created_at&quot;: &quot;2024-11-15T10:00:00Z&quot;&lt;/div&gt;&lt;div&gt;&amp;nbsp; }&lt;/div&gt;&lt;div&gt;}&lt;/div&gt;&lt;/div&gt;" style="rounded=0;whiteSpace=wrap;html=1;fillColor=#fff2cc;strokeColor=#d6b656;verticalAlign=top;align=left;" vertex="1" parent="1">
                    <mxGeometry x="1160" y="420" width="320" height="340" as="geometry"/>
                </mxCell>
                <mxCell id="SOv8JeapurKoSql_hbcw-1" value="PrerpomptEnhancer" style="rounded=1;whiteSpace=wrap;html=1;" vertex="1" parent="1">
                    <mxGeometry x="-770" y="290" width="200" height="80" as="geometry"/>
                </mxCell>
                <mxCell id="K65jQkLNsSWvZxR_dDmF-5" value="" style="rounded=0;whiteSpace=wrap;html=1;fillColor=#dae8fc;strokeColor=#6c8ebf;" vertex="1" parent="1">
                    <mxGeometry x="1840" y="80" width="760" height="960" as="geometry"/>
                </mxCell>
                <mxCell id="K65jQkLNsSWvZxR_dDmF-6" value="&lt;font style=&quot;font-size: 14px;&quot;&gt;&lt;b&gt;LLM&lt;/b&gt;&lt;/font&gt;" style="text;html=1;align=center;verticalAlign=middle;whiteSpace=wrap;rounded=0;" vertex="1" parent="1">
                    <mxGeometry x="1850" y="90" width="60" height="30" as="geometry"/>
                </mxCell>
                <mxCell id="K65jQkLNsSWvZxR_dDmF-7" value="PETFGenerator&lt;div&gt;Parameter-Efficient Fine-Tuning&lt;/div&gt;" style="rounded=1;whiteSpace=wrap;html=1;" vertex="1" parent="1">
                    <mxGeometry x="1900" y="320" width="200" height="80" as="geometry"/>
                </mxCell>
                <mxCell id="K65jQkLNsSWvZxR_dDmF-8" value="&lt;br&gt;post data&lt;div&gt;&amp;nbsp; - convert in chunk&lt;/div&gt;&lt;div&gt;&amp;nbsp; - manage translation and&amp;nbsp;code-switching&lt;br&gt;&amp;nbsp; - create embeddings with metada&lt;/div&gt;&lt;div&gt;&amp;nbsp; - save embeddings&lt;/div&gt;" style="rounded=0;whiteSpace=wrap;html=1;fillColor=#fff2cc;strokeColor=#d6b656;align=left;verticalAlign=top;" vertex="1" parent="1">
                    <mxGeometry x="320" y="420" width="230" height="240" as="geometry"/>
                </mxCell>
                <mxCell id="K65jQkLNsSWvZxR_dDmF-9" value="&lt;br&gt;&lt;br&gt;post ask/&lt;div&gt;&amp;nbsp; - get original prompt&lt;/div&gt;&lt;div&gt;&amp;nbsp; - create a preprompt with set of chunk&lt;br&gt;&amp;nbsp; - ask at choosen model&lt;br&gt;&lt;br&gt;---&lt;br&gt;&lt;br&gt;&lt;div&gt;* Retrieval of the top-*k* chunks relevant to the question&lt;/div&gt;&lt;div&gt;&lt;br&gt;&lt;/div&gt;&lt;div&gt;&amp;nbsp; * Similarity metric: cosine similarity&lt;/div&gt;&lt;div&gt;&amp;nbsp; * Optimal *k* = 3 to 5 (depending on chunk size and prompt length)&lt;/div&gt;&lt;div&gt;&lt;br&gt;&lt;/div&gt;&lt;div&gt;* Prompt structuring&lt;/div&gt;&lt;div&gt;&amp;nbsp; Example of a prompt injecting context:&lt;/div&gt;&lt;div&gt;&lt;br&gt;&lt;/div&gt;&lt;div&gt;```&lt;/div&gt;&lt;div&gt;You are an expert in [domain].&amp;nbsp;&amp;nbsp;&lt;/div&gt;&lt;div&gt;Here are the relevant documents:&amp;nbsp;&amp;nbsp;&lt;/div&gt;&lt;div&gt;[context_chunk_1]&amp;nbsp;&amp;nbsp;&lt;/div&gt;&lt;div&gt;[context_chunk_2]&amp;nbsp;&amp;nbsp;&lt;/div&gt;&lt;div&gt;[context_chunk_3]&amp;nbsp;&amp;nbsp;&lt;/div&gt;&lt;div&gt;&lt;br&gt;&lt;/div&gt;&lt;div&gt;Question: [user_query]&amp;nbsp;&amp;nbsp;&lt;/div&gt;&lt;div&gt;&lt;br&gt;&lt;/div&gt;&lt;div&gt;Respond clearly and precisely.&lt;/div&gt;&lt;div&gt;```&lt;/div&gt;&lt;/div&gt;" style="rounded=0;whiteSpace=wrap;html=1;fillColor=#fff2cc;strokeColor=#d6b656;align=left;verticalAlign=top;" vertex="1" parent="1">
                    <mxGeometry x="-770" y="400" width="330" height="420" as="geometry"/>
                </mxCell>
                <mxCell id="K65jQkLNsSWvZxR_dDmF-10" value="generate&amp;nbsp;LoRA, QLoRA, D-LoRA, AdaLoRA for a specifique LLM model with embedings data&amp;nbsp;" style="rounded=0;whiteSpace=wrap;html=1;fillColor=#fff2cc;strokeColor=#d6b656;verticalAlign=top;align=left;" vertex="1" parent="1">
                    <mxGeometry x="1901" y="450" width="230" height="300" as="geometry"/>
                </mxCell>
                <mxCell id="K65jQkLNsSWvZxR_dDmF-11" value="DomainDocument" style="rounded=1;whiteSpace=wrap;html=1;" vertex="1" parent="1">
                    <mxGeometry x="40" y="420" width="200" height="80" as="geometry"/>
                </mxCell>
                <mxCell id="K65jQkLNsSWvZxR_dDmF-12" value="&lt;br&gt;post document&lt;div&gt;&amp;nbsp; - save raw document with id&lt;br&gt;&lt;/div&gt;" style="rounded=0;whiteSpace=wrap;html=1;fillColor=#fff2cc;strokeColor=#d6b656;align=left;verticalAlign=top;" vertex="1" parent="1">
                    <mxGeometry x="40" y="510" width="230" height="80" as="geometry"/>
                </mxCell>
                <mxCell id="K65jQkLNsSWvZxR_dDmF-20" value="FineTunedModelGenerator" style="rounded=1;whiteSpace=wrap;html=1;" vertex="1" parent="1">
                    <mxGeometry x="2200" y="320" width="200" height="80" as="geometry"/>
                </mxCell>
                <mxCell id="K65jQkLNsSWvZxR_dDmF-21" value="generate&amp;nbsp;fine tuned model with a specific PETF" style="rounded=0;whiteSpace=wrap;html=1;fillColor=#fff2cc;strokeColor=#d6b656;verticalAlign=top;align=left;" vertex="1" parent="1">
                    <mxGeometry x="2210" y="445" width="230" height="300" as="geometry"/>
                </mxCell>
                <mxCell id="K65jQkLNsSWvZxR_dDmF-23" style="edgeStyle=none;html=1;exitX=0.25;exitY=1;exitDx=0;exitDy=0;entryX=0.5;entryY=0;entryDx=0;entryDy=0;" edge="1" parent="1" source="K65jQkLNsSWvZxR_dDmF-22" target="K65jQkLNsSWvZxR_dDmF-7">
                    <mxGeometry relative="1" as="geometry"/>
                </mxCell>
                <mxCell id="K65jQkLNsSWvZxR_dDmF-25" style="edgeStyle=none;html=1;exitX=0.75;exitY=1;exitDx=0;exitDy=0;entryX=0.5;entryY=0;entryDx=0;entryDy=0;" edge="1" parent="1" source="K65jQkLNsSWvZxR_dDmF-22" target="K65jQkLNsSWvZxR_dDmF-20">
                    <mxGeometry relative="1" as="geometry"/>
                </mxCell>
                <mxCell id="K65jQkLNsSWvZxR_dDmF-22" value="LLMApi" style="rounded=1;whiteSpace=wrap;html=1;" vertex="1" parent="1">
                    <mxGeometry x="2060" y="140" width="200" height="80" as="geometry"/>
                </mxCell>
                <mxCell id="K65jQkLNsSWvZxR_dDmF-28" style="edgeStyle=none;html=1;exitX=0.25;exitY=1;exitDx=0;exitDy=0;entryX=0.5;entryY=0;entryDx=0;entryDy=0;" edge="1" parent="1" source="K65jQkLNsSWvZxR_dDmF-27" target="SOv8JeapurKoSql_hbcw-1">
                    <mxGeometry relative="1" as="geometry"/>
                </mxCell>
                <mxCell id="K65jQkLNsSWvZxR_dDmF-31" style="edgeStyle=none;html=1;exitX=0.75;exitY=1;exitDx=0;exitDy=0;entryX=0.5;entryY=0;entryDx=0;entryDy=0;" edge="1" parent="1" source="K65jQkLNsSWvZxR_dDmF-27" target="K65jQkLNsSWvZxR_dDmF-30">
                    <mxGeometry relative="1" as="geometry"/>
                </mxCell>
                <mxCell id="K65jQkLNsSWvZxR_dDmF-27" value="OptimizedAgent" style="rounded=1;whiteSpace=wrap;html=1;" vertex="1" parent="1">
                    <mxGeometry x="-613" y="140" width="200" height="80" as="geometry"/>
                </mxCell>
                <mxCell id="K65jQkLNsSWvZxR_dDmF-29" value="&lt;br&gt;&lt;br&gt;post ask/&lt;div&gt;&amp;nbsp;- verify with similary in a cached validate question response&lt;/div&gt;&lt;div&gt;&amp;nbsp;if a simalarity exist he take the cached response&lt;/div&gt;&lt;div&gt;&amp;nbsp;if not he call the preprompt enhancer&lt;br&gt;&lt;br&gt;post validate-response/&lt;br&gt;save question response in a vectoriel db like the embeddings&lt;/div&gt;" style="rounded=0;whiteSpace=wrap;html=1;fillColor=#fff2cc;strokeColor=#d6b656;align=left;verticalAlign=top;" vertex="1" parent="1">
                    <mxGeometry x="-380" y="110" width="330" height="180" as="geometry"/>
                </mxCell>
                <mxCell id="K65jQkLNsSWvZxR_dDmF-30" value="CachedAgentResponse" style="rounded=1;whiteSpace=wrap;html=1;" vertex="1" parent="1">
                    <mxGeometry x="-410" y="390" width="200" height="80" as="geometry"/>
                </mxCell>
                <mxCell id="K65jQkLNsSWvZxR_dDmF-32" value="save and read the validated question response as embeddings data" style="rounded=0;whiteSpace=wrap;html=1;fillColor=#fff2cc;strokeColor=#d6b656;align=left;verticalAlign=top;" vertex="1" parent="1">
                    <mxGeometry x="-410" y="490" width="330" height="180" as="geometry"/>
                </mxCell>
            </root>
        </mxGraphModel>
    </diagram>
</mxfile>